<svg xmlns="http://www.w3.org/2000/svg" viewBox="0 0 48 60" fill="none" x="0px" y="0px"><path fill-rule="evenodd" clip-rule="evenodd" d="M32 40C32.5523 40 33 39.5523 33 39C33 38.4477 32.5523 38 32 38C31.4477 38 31 38.4477 31 39C31 39.5523 31.4477 40 32 40ZM32 43C34.2091 43 36 41.2091 36 39C36 36.7909 34.2091 35 32 35C29.7909 35 28 36.7909 28 39C28 41.2091 29.7909 43 32 43Z" fill="black"/><path fill-rule="evenodd" clip-rule="evenodd" d="M20 40C20.5523 40 21 39.5523 21 39C21 38.4477 20.5523 38 20 38C19.4477 38 19 38.4477 19 39C19 39.5523 19.4477 40 20 40ZM20 43C22.2091 43 24 41.2091 24 39C24 36.7909 22.2091 35 20 35C17.7909 35 16 36.7909 16 39C16 41.2091 17.7909 43 20 43Z" fill="black"/><path fill-rule="evenodd" clip-rule="evenodd" d="M5.75196 6.16786C6.21149 5.47857 7.14279 5.29231 7.83209 5.75184L10.1681 7.30917C10.9142 7.80655 11.4409 8.5713 11.6396 9.44567L15.7551 27.554C16.0138 28.6922 17.0257 29.4999 18.193 29.4999H33.8071C34.9744 29.4999 35.9863 28.6922 36.245 27.554L39.4268 13.554C39.7823 11.9896 38.5932 10.4999 36.9889 10.4999H21.5C20.6716 10.4999 20 9.82834 20 8.99992C20 8.17149 20.6716 7.49992 21.5 7.49992H36.9889C40.5184 7.49992 43.1344 10.7771 42.3522 14.2188L39.1704 28.2188C38.6012 30.7229 36.3751 32.4999 33.8071 32.4999H18.193C15.625 32.4999 13.3988 30.7229 12.8297 28.2188L8.7142 10.1105C8.68581 9.98563 8.61056 9.87638 8.50398 9.80532L6.16799 8.24799C5.47869 7.78846 5.29243 6.85716 5.75196 6.16786Z" fill="black"/><path fill-rule="evenodd" clip-rule="evenodd" d="M19.9891 20.061C20.5746 19.4749 21.5243 19.4744 22.1104 20.0599L23.8796 21.8273L29.8891 15.8178C30.4749 15.232 31.4246 15.232 32.0104 15.8178C32.5962 16.4036 32.5962 17.3533 32.0104 17.9391L24.9408 25.0088C24.3552 25.5943 23.4059 25.5946 22.82 25.0093L19.9901 22.1823C19.4041 21.5968 19.4036 20.647 19.9891 20.061Z" fill="black"/><text x="0" y="63" fill="#000000" font-size="5px" font-weight="bold" font-family="'Helvetica Neue', Helvetica, Arial-Unicode, Arial, Sans-serif">Created by Osama Khan</text><text x="0" y="68" fill="#000000" font-size="5px" font-weight="bold" font-family="'Helvetica Neue', Helvetica, Arial-Unicode, Arial, Sans-serif">from the Noun Project</text></svg>